PathFileType	4	(X/Y/Z)	TVC_39_Cal_03_0_static_RCNL2025.trc
DataRate	CameraRate	NumFrames	NumMarkers	Units	OrigDataRate	OrigDataStartFrame	OrigNumFrames
100	100	10	27	mm	100	220	292
Frame#	Time	R_Shoulder			L_Shoulder			C7			J_Notch			R_Elbow			L_Elbow			R_Wrist			L_Wrist			R_Asis			L_Asis			R_Psis			L_Psis			Sacral			Thoracic			Sternum			R_Thigh_Lateral			R_Knee_Lateral			R_Shank_Lateral			R_Ankle_Lateral			R_Heel			R_Toe			L_Thigh_Lateral			L_Knee_Lateral			L_Shank_Lateral			L_Ankle_Lateral			L_Heel			L_Toe		
		X1	Y1	Z1	X2	Y2	Z2	X3	Y3	Z3	X4	Y4	Z4	X5	Y5	Z5	X6	Y6	Z6	X7	Y7	Z7	X8	Y8	Z8	X9	Y9	Z9	X10	Y10	Z10	X11	Y11	Z11	X12	Y12	Z12	X13	Y13	Z13	X14	Y14	Z14	X15	Y15	Z15	X16	Y16	Z16	X17	Y17	Z17	X18	Y18	Z18	X19	Y19	Z19	X20	Y20	Z20	X21	Y21	Z21	X22	Y22	Z22	X23	Y23	Z23	X24	Y24	Z24	X25	Y25	Z25	X26	Y26	Z26	X27	Y27	Z27
220	2.19000000	-201.745529	1478.509155	-3.745589	-172.501526	1470.994141	-389.090363	-238.122559	1552.947144	-207.444443	-95.824257	1420.778564	-196.276443	-170.137390	1142.976074	81.241974	-182.019928	1157.009155	-497.004974	-100.890144	906.387146	10.938185	-153.603333	898.108307	-509.189255	-164.365845	940.833496	-38.824158	-126.143608	941.109070	-331.464935	-350.748352	986.607117	-151.205338	-336.300232	981.213867	-258.180817	-343.524292	983.910492	-204.693077	-336.620728	1226.063354	-211.242493	-58.921928	1260.530396	-177.174789	-226.545242	747.489685	36.347424	-223.994156	460.114075	-17.660559	-267.111542	305.238281	33.105568	-270.691833	78.087906	-58.550201	-311.568420	60.252453	-112.775696	-123.797668	46.918095	-49.503731	-202.595352	699.266541	-414.024292	-231.413696	473.107666	-352.541992	-249.016556	341.210999	-393.166809	-261.427490	75.202675	-300.114105	-299.158264	57.897995	-238.987518	-117.406013	43.006630	-319.888245
221	2.20000000	-201.701843	1478.500977	-3.801698	-172.580139	1470.939941	-388.992096	-238.121384	1552.925049	-207.484879	-95.838432	1420.834595	-196.253555	-170.075119	1143.097046	81.233337	-182.086334	1156.981445	-497.108276	-101.078205	906.207550	10.892658	-153.621628	898.117432	-509.234558	-164.406372	940.881897	-38.866756	-126.073128	941.074585	-331.497009	-350.721619	986.585754	-151.299576	-336.297516	981.231201	-258.197693	-343.509567	983.908478	-204.748634	-336.648041	1226.072632	-211.313187	-58.855656	1260.561035	-177.305710	-226.513794	747.434509	36.315712	-223.955627	460.124146	-17.619719	-267.061981	305.144592	33.134998	-270.664337	78.070541	-58.575001	-311.627655	60.274628	-112.720062	-123.847504	46.930916	-49.516506	-202.611053	699.233093	-414.042786	-231.405670	473.162994	-352.541779	-248.964249	341.310852	-393.100677	-261.452240	75.095451	-300.106232	-299.141266	57.797180	-238.881165	-117.404884	42.960213	-319.915955
222	2.21000000	-201.674866	1478.444946	-3.713575	-172.474594	1470.949463	-389.252899	-238.006973	1552.872070	-207.555176	-95.770142	1420.817749	-196.330139	-169.866867	1143.076294	81.191536	-182.088486	1157.007080	-497.166626	-100.846947	906.333832	10.797409	-153.630363	898.079041	-509.284042	-164.418121	940.854126	-38.841530	-126.125290	941.073059	-331.431213	-350.855743	986.660034	-151.137817	-336.281738	981.190125	-257.914703	-343.568741	983.925079	-204.526260	-336.632172	1226.059448	-211.236328	-58.836845	1260.557251	-177.325348	-226.648834	747.438477	36.421913	-223.935959	460.158539	-17.657085	-267.063080	305.131195	33.171459	-270.804596	78.143341	-58.625252	-311.640076	60.199909	-112.720497	-123.852661	46.923977	-49.528187	-202.762268	699.356140	-414.086700	-231.369766	473.146881	-352.561646	-249.078888	341.249542	-393.257660	-261.426086	75.242302	-300.139374	-299.138947	57.688343	-238.886795	-117.415993	42.982925	-319.903656
223	2.22000000	-201.596558	1478.574829	-3.883703	-172.497040	1470.906372	-389.057404	-237.994751	1552.870972	-207.550079	-95.728096	1420.844116	-196.401337	-169.816177	1143.002686	81.171822	-182.103928	1157.068970	-497.117950	-100.669056	906.392090	10.756769	-153.668266	898.067749	-509.386719	-164.371063	940.837219	-38.902164	-126.056328	941.107849	-331.534424	-350.914551	986.666382	-151.002563	-336.285767	981.287659	-257.899658	-343.600159	983.977020	-204.451111	-336.653748	1226.125366	-211.202652	-58.762718	1260.552490	-177.399673	-226.682495	747.601013	36.476780	-223.831650	460.231750	-17.716503	-266.951752	305.001556	33.094845	-270.688782	78.110069	-58.558971	-311.569061	60.276093	-112.692543	-123.850632	46.925003	-49.513672	-202.545425	699.259216	-414.107819	-231.385986	473.164612	-352.588776	-249.095749	341.239014	-393.297882	-261.439972	75.264862	-300.091553	-299.168335	57.825626	-238.934052	-117.418274	42.986977	-319.892487
224	2.23000000	-201.494919	1478.602417	-3.885845	-172.407349	1470.986938	-389.328827	-237.944595	1552.926758	-207.651855	-95.680817	1420.770508	-196.515900	-169.755432	1142.947144	81.070427	-182.086502	1156.985107	-497.149139	-100.850182	906.228394	10.717278	-153.705399	898.060944	-509.417984	-164.380371	940.875122	-38.894867	-125.969246	941.077026	-331.442261	-350.763885	986.560547	-151.116455	-336.237213	981.350952	-258.237579	-343.500549	983.955750	-204.677017	-336.495148	1226.168701	-211.190125	-58.752724	1260.589844	-177.444016	-226.708481	747.571106	36.452023	-223.766357	460.255402	-17.748320	-266.992584	305.320038	33.143208	-270.719971	78.123230	-58.669479	-311.574249	60.352180	-112.744522	-123.787453	46.908035	-49.515717	-202.797165	698.444397	-414.376068	-231.376678	473.154694	-352.548920	-249.105377	341.360992	-393.279297	-261.432831	75.214127	-300.106506	-299.173279	57.907803	-238.961853	-117.402039	43.006832	-319.882385
225	2.24000000	-201.424850	1478.653809	-3.974170	-172.356506	1471.015991	-389.362091	-237.959274	1552.886475	-207.738998	-95.670074	1420.810547	-196.458221	-169.744141	1143.134644	81.089256	-182.145493	1156.992798	-497.177551	-100.630444	906.386047	10.721333	-153.704880	897.982361	-509.540161	-164.348862	940.760010	-38.605728	-125.895660	940.666382	-331.059174	-350.692139	986.553345	-151.152115	-336.190002	981.354248	-257.998596	-343.441071	983.953796	-204.575356	-336.505951	1226.182495	-211.173477	-58.612782	1260.524170	-177.427673	-226.517975	747.505432	36.417114	-223.786392	460.246735	-17.737255	-266.934998	305.156982	33.100430	-270.629578	78.155945	-58.610981	-311.604004	60.254410	-112.757973	-123.788231	46.968204	-49.563118	-202.530563	699.150879	-414.126099	-231.361343	473.133881	-352.574188	-249.148071	341.301331	-393.391083	-261.538879	75.269936	-299.776520	-299.172302	57.909157	-238.962433	-117.329369	43.110447	-319.809204
226	2.25000000	-201.351883	1478.625854	-3.954388	-172.315994	1470.906372	-389.444641	-237.930206	1552.894043	-207.741608	-95.624992	1420.798584	-196.477509	-169.744476	1143.178223	81.075302	-182.154663	1156.977173	-497.217560	-100.513851	906.417755	10.615222	-153.802284	897.965454	-509.559631	-164.421524	940.722839	-38.552612	-125.877800	941.047913	-331.390045	-350.823059	986.813232	-151.032440	-336.171326	981.328674	-258.172791	-343.497192	984.070953	-204.602615	-336.338776	1226.174561	-211.190109	-58.561176	1260.557129	-177.413162	-226.489182	747.631409	36.500729	-223.775406	460.098145	-17.725069	-266.859589	305.219482	33.135742	-270.612152	78.203621	-58.552902	-311.525360	60.343349	-112.748009	-123.786591	46.924683	-49.581490	-202.548065	699.460571	-414.203522	-231.315796	473.166290	-352.601379	-249.198700	341.269897	-393.376709	-261.433258	75.283508	-300.028473	-299.127960	57.852093	-238.901291	-117.330750	43.104263	-319.810242
227	2.26000000	-201.408981	1478.624268	-4.012837	-172.270416	1470.844604	-389.246796	-237.912262	1552.890625	-207.761230	-95.532516	1420.723999	-196.463577	-169.704086	1143.137817	81.071724	-182.151260	1156.974365	-497.291321	-100.413734	906.525421	10.560790	-153.915848	897.940430	-509.582657	-164.310898	940.715698	-38.796021	-125.813934	941.088928	-331.418640	-350.866791	986.681091	-151.037506	-336.142303	981.329468	-258.228638	-343.504547	984.005280	-204.633072	-336.303894	1226.158936	-211.214844	-58.549778	1260.594238	-177.494492	-226.497726	747.555115	36.442562	-223.878067	459.977814	-17.669424	-266.799866	305.180481	33.100277	-270.639252	78.139908	-58.569656	-311.606720	60.359444	-112.704468	-123.832565	46.934414	-49.537811	-202.606308	699.459961	-414.267273	-231.301590	473.140411	-352.580811	-249.159866	341.304352	-393.415436	-261.503723	75.212616	-299.792969	-299.222931	57.851048	-238.902206	-117.382271	43.126545	-319.844391
228	2.27000000	-201.358734	1478.672852	-4.052907	-172.243378	1470.822266	-389.238281	-237.885254	1552.892090	-207.859390	-95.456413	1420.864014	-196.518570	-169.609497	1143.161377	81.027893	-182.226181	1156.952271	-497.299713	-100.703300	906.282959	10.601381	-153.982048	897.876404	-509.613113	-164.176010	940.756348	-38.878582	-125.790901	941.029907	-331.453064	-350.747620	986.739075	-151.109680	-336.072968	981.403381	-258.257996	-343.410294	984.071228	-204.683838	-336.209503	1226.086914	-211.303680	-58.430050	1260.555176	-177.496750	-226.394760	747.580078	36.378902	-223.946564	459.934082	-17.643991	-266.913666	305.069183	33.074448	-270.791962	78.183990	-58.636223	-311.600372	60.280880	-112.658989	-123.849831	46.938770	-49.508995	-202.429337	699.291870	-414.154572	-231.300186	473.146027	-352.588257	-249.222900	341.299713	-393.413055	-261.468781	75.120842	-300.036255	-299.155151	57.799519	-238.873047	-117.490227	42.979469	-319.924500
229	2.28000000	-201.351151	1478.724121	-4.072970	-172.208267	1470.844849	-389.527954	-237.857620	1552.748291	-207.910904	-95.370499	1420.885620	-196.620270	-169.485016	1143.219849	80.958664	-182.236252	1156.915283	-497.390045	-100.730518	906.215363	10.712891	-154.055176	897.864136	-509.681168	-164.070068	940.666809	-38.846588	-125.789726	941.005188	-331.439209	-350.686218	986.728760	-151.144104	-336.039764	981.356445	-258.288757	-343.362991	984.042603	-204.716431	-336.193817	1226.093384	-211.308929	-58.371181	1260.489624	-177.553452	-226.463745	747.517944	36.397903	-223.960251	459.907257	-17.658897	-267.111969	305.169739	33.068100	-270.749939	78.159264	-58.560890	-311.634186	60.374321	-112.730721	-123.853600	46.927368	-49.503120	-202.323013	699.278809	-414.100952	-231.249725	473.125336	-352.661865	-249.169144	341.323303	-393.363800	-261.414978	75.183327	-300.146484	-299.169678	57.836830	-238.930588	-117.429123	42.978230	-319.907715
